<mxfile host="65bd71144e">
    <diagram id="dam47vNcrFBiytt4lg1g" name="페이지-1">
        <mxGraphModel dx="1190" dy="866" grid="1" gridSize="10" guides="1" tooltips="1" connect="1" arrows="1" fold="1" page="1" pageScale="1" pageWidth="827" pageHeight="1169" math="0" shadow="0">
            <root>
                <mxCell id="0"/>
                <mxCell id="1" parent="0"/>
                <mxCell id="4" value="" style="edgeStyle=none;html=1;" edge="1" parent="1" source="2" target="3">
                    <mxGeometry relative="1" as="geometry"/>
                </mxCell>
                <mxCell id="12" value="List&amp;lt;PointDto&amp;gt;&lt;br&gt;(포인트상품 목록)" style="edgeLabel;html=1;align=center;verticalAlign=middle;resizable=0;points=[];" vertex="1" connectable="0" parent="4">
                    <mxGeometry x="-0.6493" y="-4" relative="1" as="geometry">
                        <mxPoint x="4" y="18" as="offset"/>
                    </mxGeometry>
                </mxCell>
                <mxCell id="2" value="&amp;lt;컨트롤러&amp;gt;&lt;br&gt;/new&lt;br&gt;포인트상품 목록 불러옴" style="rounded=0;whiteSpace=wrap;html=1;fillColor=#f8cecc;strokeColor=#b85450;" vertex="1" parent="1">
                    <mxGeometry x="30" y="30" width="140" height="60" as="geometry"/>
                </mxCell>
                <mxCell id="8" value="" style="edgeStyle=none;html=1;" edge="1" parent="1" source="3" target="5">
                    <mxGeometry relative="1" as="geometry">
                        <Array as="points"/>
                    </mxGeometry>
                </mxCell>
                <mxCell id="9" value="pointIdx&lt;br&gt;(사용자가 선택한&lt;br&gt;포인트상품 번호)" style="edgeLabel;html=1;align=center;verticalAlign=middle;resizable=0;points=[];" vertex="1" connectable="0" parent="8">
                    <mxGeometry x="-0.3868" relative="1" as="geometry">
                        <mxPoint y="12" as="offset"/>
                    </mxGeometry>
                </mxCell>
                <mxCell id="3" value="&amp;lt;JSP&amp;gt;&lt;br&gt;/new.jsp&lt;br&gt;결제할 포인트상품 선택" style="rounded=0;whiteSpace=wrap;html=1;fillColor=#dae8fc;strokeColor=#6c8ebf;" vertex="1" parent="1">
                    <mxGeometry x="30" y="170" width="140" height="60" as="geometry"/>
                </mxCell>
                <mxCell id="11" value="" style="edgeStyle=none;html=1;" edge="1" parent="1" source="5" target="10">
                    <mxGeometry relative="1" as="geometry"/>
                </mxCell>
                <mxCell id="13" value="pointDto&lt;br&gt;(사용자가 선택한&lt;br&gt;포인트상품 상세 정보)" style="edgeLabel;html=1;align=center;verticalAlign=middle;resizable=0;points=[];" vertex="1" connectable="0" parent="11">
                    <mxGeometry x="0.2079" relative="1" as="geometry">
                        <mxPoint y="-13" as="offset"/>
                    </mxGeometry>
                </mxCell>
                <mxCell id="5" value="&amp;lt;컨트롤러&amp;gt;&lt;br&gt;/buyConfirm&lt;br&gt;세션에 pointIdx 저장" style="rounded=0;whiteSpace=wrap;html=1;fillColor=#f8cecc;strokeColor=#b85450;" vertex="1" parent="1">
                    <mxGeometry x="30" y="310" width="140" height="60" as="geometry"/>
                </mxCell>
                <mxCell id="15" value="" style="edgeStyle=none;html=1;rounded=0;" edge="1" parent="1" source="10" target="14">
                    <mxGeometry relative="1" as="geometry">
                        <Array as="points">
                            <mxPoint x="200" y="490"/>
                            <mxPoint x="200" y="60"/>
                        </Array>
                    </mxGeometry>
                </mxCell>
                <mxCell id="10" value="&amp;lt;JSP&amp;gt;&lt;br&gt;/confirm_pay&lt;br&gt;결제할 상품정보 확인" style="rounded=0;whiteSpace=wrap;html=1;fillColor=#dae8fc;strokeColor=#6c8ebf;" vertex="1" parent="1">
                    <mxGeometry x="30" y="460" width="140" height="60" as="geometry"/>
                </mxCell>
                <mxCell id="19" value="" style="edgeStyle=none;rounded=0;html=1;entryX=0;entryY=0.25;entryDx=0;entryDy=0;exitX=1;exitY=0.25;exitDx=0;exitDy=0;" edge="1" parent="1" source="14" target="18">
                    <mxGeometry relative="1" as="geometry"/>
                </mxCell>
                <mxCell id="20" value="① KakaoPayReadyRequestVO&lt;br&gt;(카카오페이 결제 생성 요청)" style="edgeLabel;html=1;align=center;verticalAlign=middle;resizable=0;points=[];" vertex="1" connectable="0" parent="19">
                    <mxGeometry x="0.0991" y="2" relative="1" as="geometry">
                        <mxPoint x="-14" y="2" as="offset"/>
                    </mxGeometry>
                </mxCell>
                <mxCell id="26" value="" style="edgeStyle=none;rounded=0;html=1;fontColor=#FF0000;exitX=0.5;exitY=1;exitDx=0;exitDy=0;entryX=0;entryY=0.25;entryDx=0;entryDy=0;" edge="1" parent="1" source="14" target="25">
                    <mxGeometry relative="1" as="geometry">
                        <Array as="points">
                            <mxPoint x="300" y="165"/>
                        </Array>
                    </mxGeometry>
                </mxCell>
                <mxCell id="27" value="③ 컨트롤러가 사용자를&lt;br&gt;redirect_pc_url로&amp;nbsp;&amp;nbsp;리다이렉트" style="edgeLabel;html=1;align=center;verticalAlign=middle;resizable=0;points=[];fontColor=#000000;" vertex="1" connectable="0" parent="26">
                    <mxGeometry x="-0.3485" relative="1" as="geometry">
                        <mxPoint x="47" y="-1" as="offset"/>
                    </mxGeometry>
                </mxCell>
                <mxCell id="14" value="&amp;lt;컨트롤러&amp;gt;&lt;br&gt;/ready&lt;br&gt;카카오페이 결제 준비" style="rounded=0;whiteSpace=wrap;html=1;fillColor=#f8cecc;strokeColor=#b85450;" vertex="1" parent="1">
                    <mxGeometry x="230" y="30" width="140" height="60" as="geometry"/>
                </mxCell>
                <mxCell id="18" value="&amp;lt;카카오페이측 컨트롤러&amp;gt;&lt;br&gt;/ready" style="rounded=0;whiteSpace=wrap;html=1;fillColor=#fff2cc;strokeColor=#d6b656;" vertex="1" parent="1">
                    <mxGeometry x="620" y="30" width="170" height="60" as="geometry"/>
                </mxCell>
                <mxCell id="24" value="★ 결제일련번호 tid&lt;font color=&quot;#000000&quot;&gt;,&lt;br&gt;사용자 인증 페이지 redirect_pc_url 포함&lt;/font&gt;" style="text;html=1;strokeColor=none;fillColor=none;align=center;verticalAlign=middle;whiteSpace=wrap;rounded=0;fontColor=#FF0000;" vertex="1" parent="1">
                    <mxGeometry x="360" y="80" width="260" height="40" as="geometry"/>
                </mxCell>
                <mxCell id="29" value="" style="edgeStyle=none;rounded=0;html=1;fontColor=#FF0000;exitX=0;exitY=0.75;exitDx=0;exitDy=0;entryX=0.5;entryY=0;entryDx=0;entryDy=0;" edge="1" parent="1" source="25" target="28">
                    <mxGeometry relative="1" as="geometry">
                        <Array as="points">
                            <mxPoint x="300" y="195"/>
                        </Array>
                    </mxGeometry>
                </mxCell>
                <mxCell id="30" value="&lt;font color=&quot;#000000&quot;&gt;④ 사용자가 컨트롤러로&lt;br&gt;인증 토큰 &lt;/font&gt;★ pg_token&lt;font color=&quot;#000000&quot;&gt;을 담은 GET 요청&lt;/font&gt;" style="edgeLabel;html=1;align=center;verticalAlign=middle;resizable=0;points=[];fontColor=#FF0000;" vertex="1" connectable="0" parent="29">
                    <mxGeometry x="-0.1603" y="1" relative="1" as="geometry">
                        <mxPoint x="34" as="offset"/>
                    </mxGeometry>
                </mxCell>
                <mxCell id="25" value="&amp;lt;카카오페이측 HTML&amp;gt;&lt;br&gt;redirect_pc_url&lt;br&gt;QR 등 사용자인증 페이지" style="rounded=0;whiteSpace=wrap;html=1;fillColor=#ffe6cc;strokeColor=#d79b00;" vertex="1" parent="1">
                    <mxGeometry x="620" y="150" width="170" height="60" as="geometry"/>
                </mxCell>
                <mxCell id="39" value="" style="edgeStyle=none;rounded=0;html=1;fontColor=#000000;endArrow=classic;endFill=1;exitX=0.5;exitY=1;exitDx=0;exitDy=0;entryX=0.233;entryY=0;entryDx=0;entryDy=0;entryPerimeter=0;" edge="1" parent="1" source="28" target="38">
                    <mxGeometry relative="1" as="geometry"/>
                </mxCell>
                <mxCell id="28" value="&amp;lt;컨트롤러&amp;gt;&lt;br&gt;/success&lt;br&gt;카카오페이 결제 실행" style="rounded=0;whiteSpace=wrap;html=1;fillColor=#f8cecc;strokeColor=#b85450;" vertex="1" parent="1">
                    <mxGeometry x="230" y="240" width="140" height="60" as="geometry"/>
                </mxCell>
                <mxCell id="31" value="&amp;lt;카카오페이측 컨트롤러&amp;gt;&lt;br&gt;/approve&lt;br&gt;결제 최종 실행 페이지" style="rounded=0;whiteSpace=wrap;html=1;fillColor=#fff2cc;strokeColor=#d6b656;" vertex="1" parent="1">
                    <mxGeometry x="620" y="240" width="170" height="60" as="geometry"/>
                </mxCell>
                <mxCell id="34" value="" style="endArrow=classic;html=1;rounded=0;entryX=1;entryY=0.75;entryDx=0;entryDy=0;exitX=0;exitY=0.75;exitDx=0;exitDy=0;endFill=1;" edge="1" parent="1" source="18" target="14">
                    <mxGeometry width="50" height="50" relative="1" as="geometry">
                        <mxPoint x="620" y="75.00000000000011" as="sourcePoint"/>
                        <mxPoint x="440" y="76.5" as="targetPoint"/>
                    </mxGeometry>
                </mxCell>
                <mxCell id="35" value="② KakaoPayReadyResponseVO&lt;br&gt;(카카오페이 결제 생성요청 결과)" style="edgeLabel;html=1;align=center;verticalAlign=middle;resizable=0;points=[];" vertex="1" connectable="0" parent="34">
                    <mxGeometry x="-0.1906" y="-2" relative="1" as="geometry">
                        <mxPoint x="-24" y="-3" as="offset"/>
                    </mxGeometry>
                </mxCell>
                <mxCell id="36" value="⑤ KakaoPayApproveRequestVO&lt;br&gt;(카카오페이 결제 실행 요청)" style="endArrow=classic;html=1;rounded=0;fontColor=#000000;exitX=1;exitY=0.25;exitDx=0;exitDy=0;entryX=0;entryY=0.25;entryDx=0;entryDy=0;" edge="1" parent="1" source="28" target="31">
                    <mxGeometry width="50" height="50" relative="1" as="geometry">
                        <mxPoint x="360" y="340" as="sourcePoint"/>
                        <mxPoint x="410" y="290" as="targetPoint"/>
                    </mxGeometry>
                </mxCell>
                <mxCell id="37" value="⑥ KakaoPayApproveResponseVO&lt;br&gt;(카카오페이 결제 결과)" style="endArrow=classic;html=1;rounded=0;fontColor=#000000;exitX=0;exitY=0.75;exitDx=0;exitDy=0;entryX=1;entryY=0.75;entryDx=0;entryDy=0;" edge="1" parent="1" source="31" target="28">
                    <mxGeometry width="50" height="50" relative="1" as="geometry">
                        <mxPoint x="360" y="340" as="sourcePoint"/>
                        <mxPoint x="410" y="290" as="targetPoint"/>
                    </mxGeometry>
                </mxCell>
                <mxCell id="48" value="" style="edgeStyle=none;rounded=0;html=1;fontColor=#000000;endArrow=classic;endFill=1;exitX=0.233;exitY=1;exitDx=0;exitDy=0;exitPerimeter=0;" edge="1" parent="1" source="38" target="45">
                    <mxGeometry relative="1" as="geometry"/>
                </mxCell>
                <mxCell id="38" value="&amp;lt;컨트롤러&amp;gt;&lt;br&gt;/success&lt;br&gt;- 결제이력을 paid 테이블에 저장&lt;br&gt;- 포인트 변동이력을 point_history 테이블에 기록&lt;br&gt;- 포인트 변동량을 member 테이블에 증대 반영" style="rounded=0;whiteSpace=wrap;html=1;fillColor=#f8cecc;strokeColor=#b85450;" vertex="1" parent="1">
                    <mxGeometry x="230" y="340" width="300" height="80" as="geometry"/>
                </mxCell>
                <mxCell id="45" value="&amp;lt;JSP&amp;gt;&lt;br&gt;/success_pay&lt;br&gt;결제 완료 화면" style="rounded=0;whiteSpace=wrap;html=1;fillColor=#dae8fc;strokeColor=#6c8ebf;" vertex="1" parent="1">
                    <mxGeometry x="230" y="460" width="140" height="60" as="geometry"/>
                </mxCell>
            </root>
        </mxGraphModel>
    </diagram>
</mxfile>